<svg width="127" height="43" viewBox="0 0 127 43" fill="none" xmlns="http://www.w3.org/2000/svg">
<path d="M82.3538 41.9076H94.7194C93.8573 40.0919 93.5424 38.5055 93.4978 35.7852L93.4088 29.0257C93.3197 23.4926 91.4141 21.6769 85.3919 21.4953V20.5428C91.6877 20.2243 93.9527 17.6855 93.9527 10.9706V10.6075C93.9527 3.80337 90.8733 1.08301 83.1269 1.08301H64.5991V41.9076H76.6021V26.4869H79.3189C80.9954 26.4869 81.5394 27.1208 81.5394 29.0257L81.5839 36.3299C81.5839 39.098 81.8098 40.6398 82.3538 41.9076ZM114.198 1.08301V32.0646C114.198 33.9249 113.565 34.5142 111.663 34.5142C109.761 34.5142 109.127 33.9249 109.127 32.0646V1.08301H96.9432V32.5169C96.9432 39.5918 101.111 42.4045 111.666 42.4045C122.222 42.4045 126.389 39.5918 126.389 32.5169V1.08301H114.205H114.198ZM76.4621 20.2243V8.52101H79.2266C80.9922 8.52101 81.7176 9.20269 81.7176 10.7444V17.8671C81.7176 19.4534 80.9032 20.2243 79.0898 20.2243H76.4621Z" fill="#FF2C00"/>
<path d="M44.4392 25.082L44.5283 23.2663C44.6174 21.7246 45.3904 21.0875 47.1115 21.0875C48.8326 21.0875 49.6025 21.7692 49.6025 23.2663V33.2463C49.6025 34.8327 48.8771 35.4697 47.0193 35.4697C45.1614 35.4697 44.3915 34.8358 44.3915 33.2017L44.347 28.621H32.8848L32.9294 33.4279C32.9739 39.9134 37.0078 42.5 47.0193 42.5C57.0307 42.5 61.2873 39.2349 61.2873 32.3385V22.1323C61.2873 15.5544 58.7963 12.6524 53.0891 12.6524C48.4222 12.6524 46.1571 14.105 44.9801 17.9148L44.7987 18.5041H43.8475V9.02423H60.3361V1.08612H33.1553V25.082H44.4361H44.4392ZM14.8597 34.5619C12.8651 34.5619 12.1875 34.0172 12.1875 32.3385V10.6106C12.1875 8.97645 12.8205 8.43174 14.8597 8.43174C16.8989 8.43174 17.532 9.02105 17.532 10.6106V32.3385C17.532 33.9726 16.8067 34.5619 14.8597 34.5619ZM14.8597 42.5C25.5043 42.5 29.6272 39.6873 29.6272 32.4308V10.6138C29.6272 3.30956 25.5043 0.5 14.8597 0.5C4.2152 0.5 0 3.26815 0 10.6138V32.4308C0 39.735 4.12294 42.5 14.8597 42.5Z" fill="#15252B"/>
</svg>
